<?xml version="1.0" encoding="UTF-8" standalone="no"?>
<svg
   xmlns:dc="http://purl.org/dc/elements/1.1/"
   xmlns:cc="http://creativecommons.org/ns#"
   xmlns:rdf="http://www.w3.org/1999/02/22-rdf-syntax-ns#"
   xmlns:svg="http://www.w3.org/2000/svg"
   xmlns="http://www.w3.org/2000/svg"
   xmlns:sodipodi="http://sodipodi.sourceforge.net/DTD/sodipodi-0.dtd"
   xmlns:inkscape="http://www.inkscape.org/namespaces/inkscape"
   id="svg"
   version="1.1"
   width="400"
   height="400"
   viewBox="0, 0, 400,400"
   inkscape:version="0.91 r13725"
   sodipodi:docname="image2vector (3).svg">
  <metadata
     id="metadata3344">
    <rdf:RDF>
      <cc:Work
         rdf:about="">
        <dc:format>image/svg+xml</dc:format>
        <dc:type
           rdf:resource="http://purl.org/dc/dcmitype/StillImage" />
        <dc:title></dc:title>
      </cc:Work>
    </rdf:RDF>
  </metadata>
  <defs
     id="defs3342" />
  <sodipodi:namedview
     pagecolor="#ffffff"
     bordercolor="#666666"
     borderopacity="1"
     objecttolerance="10"
     gridtolerance="10"
     guidetolerance="10"
     inkscape:pageopacity="0"
     inkscape:pageshadow="2"
     inkscape:window-width="1366"
     inkscape:window-height="715"
     id="namedview3340"
     showgrid="false"
     inkscape:zoom="1.35"
     inkscape:cx="182.56064"
     inkscape:cy="191.1113"
     inkscape:window-x="-8"
     inkscape:window-y="-8"
     inkscape:window-maximized="1"
     inkscape:current-layer="svg" />
  <path
     style="fill:#d7c0b6;fill-rule:evenodd;stroke:none"
     inkscape:connector-curvature="0"
     d="m 98.395374,10.318285 c -0.632389,0.269541 -2.577237,0.922662 -4.318889,1.451378 -11.511501,3.495747 -25.129578,15.34312 -27.818778,24.20275 -0.476874,1.575782 -1.571635,4.379015 -2.432095,6.232633 -2.81774,6.070909 -0.485177,18.316398 6.207755,32.626989 2.307686,4.930539 4.820653,10.61787 6.742683,15.26228 0.263334,0.634461 1.922044,4.522083 3.688586,8.639849 5.645851,13.164006 5.471691,19.292966 -0.808635,28.542396 -9.141602,13.46049 -28.040632,17.4435 -31.0906,6.55194 -1.861905,-6.64939 -0.138911,-16.56024 4.571851,-26.29275 4.940904,-10.207349 0.350406,-11.868141 -7.99296,-2.89241 -22.840536,24.58013 -6.833913,52.17706 24.53245,42.2994 9.029654,-2.84263 19.257713,-8.70621 20.279904,-11.62555 0.279909,-0.79825 1.693972,-3.18058 3.143269,-5.29337 9.297115,-13.56004 8.996475,-23.55381 -1.212938,-40.418826 C 90.188861,86.799686 88.403672,83.430415 87.920566,82.117956 76.156107,50.197995 76.149891,43.658498 87.877089,31.257505 96.205925,22.449712 111.99485,16.470054 116.09189,20.56914 c 3.47294,3.470868 -0.0394,16.827698 -5.8615,22.297321 -2.14389,2.013268 -7.71305,11.596513 -7.21335,12.407212 2.34501,3.794318 16.469,-9.740823 24.58841,-23.564166 4.84755,-8.254197 -3.42322,-17.489088 -18.8431,-21.034598 -4.34169,-0.9993779 -8.5175,-1.1424422 -10.366976,-0.356624 M 287.44984,28.802604 c -0.55564,0.32345 -1.00764,0.955836 -1.00764,1.405762 0,0.449929 -0.55568,1.797636 -1.23368,2.993987 -6.12897,10.829358 -7.06408,13.510261 -5.07775,14.573914 2.1667,1.159029 16.67841,-11.100973 16.67841,-14.090812 0,-3.628446 -6.07298,-6.796598 -9.35934,-4.882851 M 275.4988,55.592977 c -1.4265,0.812772 -2.98362,1.911672 -3.46049,2.440389 -2.09623,2.313911 -4.60295,5.786853 -4.60295,6.37155 0,0.350405 -0.2115,0.636535 -0.47068,0.636535 -0.2571,0 -1.07193,1.708478 -1.80799,3.794316 l -1.33942,3.796392 -4.2546,1.938627 c -2.33881,1.065728 -4.59673,2.272445 -5.01764,2.682977 -0.42089,0.410534 -2.16255,2.075472 -3.87311,3.701015 -3.31123,3.149491 -4.05763,4.105327 -5.34107,6.835993 -1.43893,3.064481 -3.40866,5.200083 -9.28467,10.064273 -9.26187,7.665356 -9.37798,7.696456 -11.80385,3.182666 -2.33258,-4.34377 -6.45657,-6.634874 -13.20548,-7.341901 -0.76715,-0.07879 -1.49076,-0.439562 -1.60894,-0.798259 -0.31103,-0.94547 10.90399,-12.048515 16.37983,-16.216046 15.76199,-11.998752 9.86938,-17.727549 -14.04312,-13.655397 -2.98983,0.510055 -6.52497,0.939249 -7.8561,0.953763 -11.68981,0.12648 -16.70536,7.503627 -8.19201,12.04644 3.98715,2.127308 5.2229,1.988389 17.94526,-1.994607 5.25399,-1.646279 5.7827,-1.264772 3.17231,2.297326 -4.32511,5.909183 -17.599,17.146997 -24.83102,21.024253 -5.9859,3.211698 -7.45178,9.431898 -2.51088,10.671778 1.87435,0.47067 7.38751,-1.97595 8.84097,-3.92286 0.16586,-0.21979 1.89922,-1.19429 3.85651,-2.16464 6.91064,-3.429396 11.92619,-2.065099 13.68028,3.71968 1.58615,5.22704 0.87912,6.469 -5.74124,10.08708 -1.90129,1.03877 -4.42255,2.49638 -5.6044,3.23866 -1.18183,0.74226 -2.26621,1.34977 -2.40928,1.34977 -0.14513,0 -3.19511,1.58614 -6.78001,3.5227 -3.58283,1.93862 -9.15197,4.91395 -12.37403,6.60793 -21.41199,11.27099 -32.44247,20.92473 -32.44247,28.39311 0,22.60417 39.45055,19.5542 55.71429,-4.30645 1.2772,-1.87228 3.12668,-4.31268 4.11155,-5.42195 0.98278,-1.10718 1.93861,-2.4694 2.12108,-3.02302 0.18244,-0.55358 0.57434,-1.00766 0.86874,-1.00766 0.29651,0 0.53908,-0.38772 0.53908,-0.86461 0,-0.47479 0.25918,-0.86253 0.57435,-0.86253 0.31722,0 0.5764,0.37321 0.5764,0.82937 0,0.45613 -0.25918,0.98899 -0.5764,1.18596 -0.31517,0.19491 -0.57435,0.85841 -0.57435,1.47421 0,0.61371 -0.19487,1.12585 -0.43334,1.13621 -0.67384,0.027 -2.57307,2.86128 -1.91787,2.86128 1.31453,0 5.08604,-4.58635 7.66327,-9.31784 0.86253,-1.58616 2.06718,-3.70101 2.67467,-4.70247 3.11009,-5.11506 5.63135,-12.99605 6.10825,-19.096 0.47066,-6.01077 0.92473,-6.98942 4.67966,-10.08084 4.04726,-3.32989 5.8926,-3.67407 5.4862,-1.02012 -0.40638,2.66224 4.04519,12.32635 6.77793,14.7149 5.77856,5.05081 13.74248,6.29276 19.79888,3.08936 4.60502,-2.43831 10.04769,-6.73439 11.09477,-8.75803 0.48101,-0.93095 2.35951,-3.18265 4.17165,-5.00518 1.81217,-1.82043 3.61602,-3.82957 4.00582,-4.46195 0.39187,-0.63239 1.74788,-2.83433 3.01471,-4.89322 3.53721,-5.74953 3.3838,-5.629274 7.53059,-5.849052 l 3.71968,-0.199048 0.0166,4.89529 c 0.0352,10.9434 8.28529,14.69004 12.96703,5.89052 3.20133,-6.01699 5.72465,-10.043533 8.56312,-13.655393 1.54469,-1.963506 3.20342,-4.339621 3.69067,-5.276795 1.11963,-2.166703 3.58905,-3.439768 4.09702,-2.112793 0.19076,0.497614 -0.16587,1.712626 -0.78995,2.701635 -2.34297,3.701016 -3.05206,6.002488 -3.81714,12.380256 -1.29379,10.8024 -0.38149,13.48539 6.04396,17.78354 7.51399,5.0259 11.64627,2.48186 24.55111,-15.11921 0.92889,-1.26685 1.82459,-2.43211 1.99044,-2.59176 3.43564,-3.275966 6.36948,-7.872689 6.21399,-9.732526 -0.25088,-2.991914 -2.07339,-3.103877 -4.59051,-0.281984 -1.05535,1.179765 -2.39271,2.556501 -2.97326,3.056191 -0.57847,0.501762 -1.90544,1.689818 -2.94627,2.639435 -18.48435,16.885764 -19.32408,17.410324 -19.32408,12.075464 0,-1.45759 0.23429,-3.08522 0.52043,-3.62222 0.28819,-0.53494 0.94338,-3.41282 1.4576,-6.394362 1.08437,-6.28654 2.34087,-8.840968 7.53056,-15.305822 6.39022,-7.96392 7.01639,-13.553801 1.98632,-17.785607 -3.86686,-3.253161 -8.19821,-1.150735 -14.09496,6.842213 -0.9351,1.266846 -2.13352,2.821895 -2.66432,3.456354 -5.06114,6.052249 -7.51604,9.460915 -11.52808,16.000411 -3.73834,6.093717 -6.19946,7.675719 -5.43231,3.48953 0.22392,-1.217085 0.63448,-4.02654 0.91439,-6.243002 0.32759,-2.608334 1.20255,-5.455109 2.47561,-8.063443 1.08438,-2.216462 2.17086,-4.679659 2.41345,-5.471697 0.24465,-0.792039 1.45346,-2.541987 2.68714,-3.88762 4.27948,-4.675514 4.21313,-7.163591 -0.24883,-9.440183 -4.50135,-2.297323 -7.966,-0.626165 -9.70764,4.681734 -0.67594,2.06303 -1.3892,4.009951 -1.58407,4.327181 -0.19492,0.317231 -1.65044,4.464025 -3.23451,9.21418 -3.15157,9.454694 -3.43355,9.811318 -8.06345,10.182456 l -2.30354,0.184532 0.19696,-3.168151 c 0.10783,-1.741655 0.48933,-3.522702 0.84802,-3.956044 0.74022,-0.895707 1.68361,-7.574121 1.67945,-11.880569 -0.0109,-10.671779 -12.30353,-20.060122 -20.29026,-15.496574 m 10.03525,5.602321 c 1.9179,1.401615 0.97242,15.529749 -1.44515,21.58407 -0.29028,0.727763 -0.52665,1.795563 -0.52665,2.374041 0,4.159237 -2.70786,6.956249 -6.72817,6.956249 -8.25212,0 -9.77193,-6.075055 -4.70663,-18.795351 3.94153,-9.896328 9.53349,-14.951272 13.4066,-12.119009 M 130.08107,74.1333 c -3.93947,2.656021 -8.94878,7.424837 -10.28199,9.784364 -0.36698,0.65312 -1.5115,2.67883 -2.54197,4.50342 -1.02841,1.824589 -1.87022,3.775657 -1.87022,4.333401 0,0.559818 -0.25917,1.175617 -0.5764,1.372589 -0.31722,0.194899 -0.57639,0.754718 -0.57639,1.241966 0,0.487248 -0.35042,1.704333 -0.77961,2.701637 -0.42713,0.999379 -1.08024,2.981553 -1.45136,4.405973 -8.36202,32.17706 11.69188,37.71096 28.17746,7.77524 5.32449,-9.66825 6.84844,-9.09599 4.59465,1.7292 -3.35269,16.11447 5.80551,30.23222 15.56499,23.99131 9.80303,-6.26789 31.35185,-43.84408 25.7516,-44.905661 -0.71324,-0.134768 -1.78312,1.080241 -3.74455,4.254614 -19.40699,31.422337 -25.92785,37.598997 -24.67965,23.377567 0.62823,-7.15116 2.54198,-18.894882 3.30292,-20.252958 4.82272,-8.629481 5.9154,-14.60294 3.19512,-17.484964 -3.44602,-3.6554 -7.28592,-3.358904 -11.70849,0.901929 -3.03754,2.925563 -3.98508,2.693343 -5.63756,-1.38503 -3.7508,-9.245281 -9.31164,-11.353927 -16.73855,-6.344597 m 11.47834,5.434374 c 0.49346,0.704956 0.89568,2.087912 0.89568,3.076924 0,0.986937 0.38567,3.068628 0.85841,4.623677 1.24403,4.103253 1.08854,5.440595 -1.00145,8.5735 -1.03048,1.542609 -2.18744,3.344391 -2.57103,4.001657 -1.71262,2.927638 -11.06778,15.687328 -13.04789,17.793898 -6.98736,7.43727 -3.43354,-14.11569 5.25399,-31.8619 3.19926,-6.535351 7.45594,-9.284678 9.61229,-6.207756 m 122.51707,9.230768 c 2.69334,3.800537 6.09165,5.842835 11.13414,6.692929 5.81175,0.978644 -2.38647,14.304379 -13.19303,21.443079 -9.1748,6.05847 -13.62845,1.33319 -9.52518,-10.10573 7.0454,-19.635088 8.66058,-22.152193 11.58407,-18.030278 m -51.93243,36.439948 c 0,5.70187 -13.62432,23.83787 -25.35767,33.75285 -10.88118,9.19554 -20.51211,12.31808 -24.79368,8.03651 -4.49928,-4.49928 0.41882,-12.05475 13.57868,-20.85839 6.80904,-4.55318 7.10968,-4.74186 10.58054,-6.65562 4.55112,-2.50879 4.99274,-2.78663 6.41095,-4.02652 6.06468,-5.30168 19.58118,-12.37611 19.58118,-10.24883 m 111.02629,5.89676 c -1.86605,1.26892 -5.45925,6.17249 -7.54301,10.29856 -0.82314,1.62763 -1.83911,3.3133 -2.26001,3.74457 -0.64484,0.65933 -1.74996,2.64564 -5.07984,9.13331 -1.51979,2.95874 -2.70992,5.80551 -3.37754,8.06345 -1.04707,3.55379 -2.36575,7.54301 -2.95046,8.92805 -0.26745,0.63238 -1.31453,3.74248 -2.32841,6.91064 -2.60834,8.15052 -3.99131,11.06779 -7.20299,15.21043 -1.5509,1.99878 -3.62637,4.83518 -4.61331,6.30521 -3.43977,5.12545 -11.35808,11.82045 -13.5932,11.497 -3.50818,-0.50593 -1.90753,-14.83724 1.84533,-16.54365 14.605,-6.63695 19.5252,-21.9407 7.05576,-21.9407 -5.88223,0 -10.08294,3.55587 -14.28571,12.0962 -0.8563,1.74166 -3.01264,4.99067 -4.79162,7.21959 -6.01285,7.53679 -7.04126,8.94463 -12.72652,17.41654 -8.07797,12.03607 -9.91705,10.82936 -8.03649,-5.2768 1.16526,-9.98756 5.4883,-18.84097 13.92702,-28.52167 3.62431,-4.15716 9.21626,-13.83786 11.07194,-19.16857 3.92287,-11.26476 -7.10553,-16.05432 -15.17312,-6.59131 -2.78457,3.26973 -7.80841,13.27182 -10.085,20.08499 -0.50178,1.49906 -1.15074,3.18475 -1.44517,3.7425 -0.29233,0.55773 -1.26892,3.34645 -2.16878,6.1953 -1.9324,6.11859 -2.30147,6.30106 -6.4441,3.18474 -5.56086,-4.18203 -11.25648,-1.23782 -15.08191,7.79391 -3.7176,8.77668 -3.63259,8.36821 -3.19303,15.29546 0.47273,7.49118 0.47273,7.49118 2.60004,8.74766 2.87995,1.70226 7.11176,0.4665 10.40431,-3.03545 1.40161,-1.49079 5.30584,-4.62575 5.76198,-4.62575 0.32553,0 0.57433,1.68773 0.57433,3.89175 0,8.92806 4.50133,14.76054 9.36968,12.14183 2.17293,-1.16733 6.23264,-6.21814 12.30353,-15.30374 7.45802,-11.16319 12.39894,-14.61334 9.66205,-6.751 -2.33258,6.69915 0.46859,12.28696 7.03297,14.03275 4.28571,1.14037 8.7912,-2.12107 15.77025,-11.42028 1.74166,-2.32219 3.616,-4.70245 4.16131,-5.28922 1.30209,-1.39748 2.97741,-0.81692 2.48393,0.85839 -3.92079,13.27182 -1.94484,25.24568 4.57393,27.73582 4.64025,1.77277 9.08355,-1.19426 16.32177,-10.89569 1.68568,-2.25794 3.48124,-4.61538 3.9913,-5.23948 1.82873,-2.23927 10.85839,-18.36616 11.71056,-20.91851 1.46589,-4.38522 -1.38712,-4.28364 -3.62016,0.12854 -7.98051,15.77441 -19.70143,31.65041 -23.1184,31.31452 -5.40949,-0.53285 -2.74931,-26.61205 3.60151,-35.30788 1.15696,-1.58408 3.29463,-4.69418 4.75016,-6.91065 10.46029,-15.93613 13.73212,-21.00144 13.73212,-21.26474 0,-0.16589 0.66762,-1.79974 1.48246,-3.63053 0.81692,-1.82873 1.87643,-4.2339 2.35538,-5.34317 0.47895,-1.10717 1.23575,-2.7493 1.6836,-3.64502 3.82127,-7.65706 -3.03959,-18.46568 -9.10844,-14.34792 m 4.87248,6.01495 c 0.45409,1.36222 -0.75263,6.85463 -2.21853,10.10779 -1.82253,4.03692 -6.81941,14.29193 -7.93075,16.26998 -0.44369,0.79202 -1.27929,2.60624 -1.85361,4.03066 -2.82397,7.00186 -6.55608,7.03919 -4.11569,0.0415 0.39394,-1.13208 0.93097,-2.21232 1.1922,-2.40514 0.26333,-0.19075 0.69459,-1.22746 0.96205,-2.30355 0.57228,-2.31598 1.68982,-5.5878 2.38856,-6.98736 0.27576,-0.54944 0.49969,-1.27721 0.49969,-1.61516 0,-1.54263 6.5768,-14.802 8.20028,-16.53536 1.33734,-1.42442 2.51918,-1.67323 2.8758,-0.60335 M 264.601,151.26371 c 1.11342,2.92764 -1.66907,11.13621 -5.91126,17.44764 -0.74642,1.10926 -2.63115,4.07214 -4.19033,6.58719 -6.07712,9.80924 -8.5113,9.20173 -4.86834,-1.21502 0.97864,-2.79702 2.13353,-6.18495 2.5648,-7.53058 3.75285,-11.69604 10.57433,-20.10573 12.40513,-15.28923 m 21.26478,26.60997 c 0,3.49161 -0.80656,5.29341 -3.88763,8.69791 -5.7122,6.3135 -7.27555,3.84201 -2.9774,-4.70868 3.4916,-6.94381 6.86503,-8.90317 6.86503,-3.98923 m -52.00705,9.41117 c 2.67883,2.94214 2.93801,5.5318 1.21917,12.23097 -0.66558,2.59796 -8.19407,10.41053 -10.61788,11.02011 -4.71905,1.18391 -4.05558,-6.04811 1.74788,-19.05451 2.53576,-5.6832 5.0425,-7.05786 7.65083,-4.19657 m -122.50462,6.80071 c -4.27535,0.23845 -9.97718,0.83557 -12.670526,1.32905 -2.693344,0.49348 -8.171263,1.49907 -12.174994,2.23512 -4.003731,0.73606 -7.632178,1.62139 -8.063444,1.96351 -0.431266,0.34419 -1.762399,0.80031 -2.960823,1.01597 -1.19635,0.21563 -3.010573,0.87082 -4.030678,1.45345 -1.020118,0.58262 -2.892394,1.37878 -4.159231,1.7686 -1.26685,0.38979 -2.821897,1.16734 -3.456357,1.72507 -0.632389,0.55774 -1.683599,1.17562 -2.334649,1.37259 -4.430853,1.33735 -16.958327,17.84989 -16.958327,22.35123 0,0.60958 -0.615787,2.45284 -1.366368,4.09703 -3.186808,6.96662 -4.441214,30.61372 -2.618702,49.35101 0.292355,3.00851 0.769243,8.58181 1.057439,12.38234 0.290269,3.80053 0.808622,8.3081 1.150728,10.01451 0.344193,1.70641 0.624103,4.34793 0.624103,5.86979 0,1.52189 0.221856,2.90275 0.491392,3.06863 0.269548,0.16795 0.642747,2.12524 0.831438,4.35207 0.186608,2.22682 0.742268,4.62573 1.235746,5.33071 0.493463,0.70495 0.897782,2.35745 0.897782,3.6699 0,1.31453 0.489318,3.92287 1.08853,5.79516 0.599211,1.87434 1.380885,5.30167 1.741653,7.61558 0.358695,2.3139 1.165245,5.66451 1.791418,7.44763 0.626161,1.78106 1.138298,3.75702 1.138298,4.39148 0,0.63445 0.360766,2.19779 0.804478,3.475 0.441626,1.27722 1.065713,3.36099 1.38503,4.62783 0.319302,1.26684 1.1528,4.24632 1.851544,6.62244 0.69873,2.37611 1.499064,5.09847 1.776902,6.04808 0.279896,0.94963 1.316603,4.05973 2.303544,6.91064 0.986926,2.85093 1.961436,6.06261 2.164617,7.13665 0.6946,3.68235 4.694173,3.22618 7.358498,-0.83974 0.868746,-1.32696 -0.04976,-6.67219 -1.478334,-8.60045 -0.671781,-0.904 -2.888251,-6.70123 -3.761142,-9.82997 -0.435423,-1.56335 -1.356009,-4.26498 -2.044379,-6.00871 -0.690443,-1.74167 -1.490764,-4.33341 -1.776903,-5.75989 -0.288198,-1.42443 -1.009743,-3.75701 -1.606884,-5.18349 -0.595054,-1.42445 -1.254404,-3.80056 -1.465888,-5.27889 -0.211482,-1.47834 -0.760941,-3.00229 -1.221228,-3.38376 -0.485175,-0.40226 -0.835583,-1.69812 -0.835583,-3.09768 0,-1.32489 -0.24466,-2.65397 -0.54323,-2.95459 -0.29857,-0.30064 -0.696659,-2.10243 -0.885336,-4.00166 -0.188677,-1.90131 -0.56812,-4.10325 -0.8418,-4.89529 -0.852173,-2.46113 -1.768614,-6.42546 -2.664325,-11.51981 -0.474801,-2.69334 -1.119622,-6.06261 -1.434781,-7.48703 -0.315157,-1.42649 -0.709103,-3.62845 -0.872904,-4.89529 -0.165873,-1.26685 -0.570177,-3.2117 -0.897783,-4.32097 -3.190963,-10.76509 -2.245488,-61.1217 1.227458,-65.36801 0.257091,-0.31723 0.609572,-1.35394 0.78166,-2.30355 1.239902,-6.90027 5.735024,-13.54965 12.527473,-18.53617 15.363876,-11.27929 40.337948,-16.00663 76.213958,-14.42256 10.27368,0.452 11.27721,0.58885 18.18163,2.46529 8.32054,2.26 19.58117,8.11942 19.58117,10.18867 0,0.13481 1.03669,1.33526 2.30354,2.66844 1.26684,1.33115 2.30354,2.768 2.30354,3.19098 0,0.42297 0.3898,1.0906 0.8646,1.48661 0.47483,0.39396 0.86462,1.20258 0.86462,1.79764 0,0.59508 0.19903,1.08025 0.4437,1.08025 0.24466,0 0.85631,0.84386 1.35808,1.87227 2.28281,4.68175 3.38172,7.2341 3.38172,7.86441 0,0.89364 2.78872,9.86108 3.44182,11.06572 0.27785,0.51421 0.6863,2.84677 0.90816,5.18349 0.22186,2.33879 0.59506,4.51174 0.82729,4.82896 0.46859,0.6386 1.30623,6.0315 1.3166,8.4781 0.0227,5.09435 -10.5847,4.7709 -11.40783,-0.34626 -0.20941,-1.30622 -0.88742,-4.18827 -1.50736,-6.4047 -0.61995,-2.21856 -1.3332,-4.82274 -1.58616,-5.78895 -0.25295,-0.9662 -0.87496,-2.52124 -1.38087,-3.45426 -0.50799,-0.9351 -1.25026,-2.34709 -1.64835,-3.13913 -0.70288,-1.3954 -2.92558,-4.33133 -4.96164,-6.55609 -1.89302,-2.06924 -9.42359,-7.84365 -10.22808,-7.84365 -0.44371,0 -1.87228,-0.55361 -3.1723,-1.23161 -2.34916,-1.22538 -4.73149,-1.87227 -14.661,-3.98093 -14.56976,-3.0935 -39.9129,-1.63798 -50.6842,2.90899 -0.632389,0.26746 -1.928259,0.65519 -2.87995,0.86253 -0.949619,0.20525 -2.245489,0.84181 -2.879949,1.41405 -0.632389,0.57018 -2.135599,1.35186 -3.338165,1.73753 -1.202581,0.38563 -2.811537,1.32488 -3.574536,2.0879 -0.760943,0.76093 -1.727151,1.38501 -2.145971,1.38501 -0.89571,0 -4.314747,3.34856 -6.767574,6.62452 -0.94962,1.26685 -1.928259,2.56271 -2.172919,2.87993 -1.353923,1.73754 -4.173747,8.45533 -4.439141,10.57435 -0.170017,1.35184 -0.63446,3.02301 -1.030477,3.71553 -0.655193,1.14659 -0.804479,24.77918 -0.207352,32.93592 0.176247,2.40722 3.020947,15.28095 3.819209,17.2797 3.518555,8.81609 11.324894,21.94485 15.237393,25.62926 1.177691,1.10927 2.699574,2.542 3.381717,3.18889 2.413434,2.28281 5.865646,4.72528 7.285911,5.15447 0.792047,0.24053 1.698117,0.62824 2.015347,0.86254 3.831642,2.8364 19.527257,4.15715 28.797427,2.42378 1.58407,-0.2944 4.8248,-0.85837 7.19882,-1.24817 2.37612,-0.39187 4.60918,-0.94548 4.96166,-1.2316 0.35248,-0.28613 2.10241,-0.79205 3.89176,-1.1217 1.78727,-0.33174 4.34999,-1.10098 5.69355,-1.71056 1.34356,-0.60956 3.0313,-1.11548 3.7487,-1.12171 0.71533,-0.007 1.75202,-0.25295 2.30356,-0.54531 0.54944,-0.29442 2.16669,-0.92472 3.59112,-1.40369 6.2658,-2.10034 10.35248,-3.73834 14.11154,-5.65001 2.21645,-1.12792 4.93883,-2.51294 6.04602,-3.07483 1.10927,-0.5619 2.84057,-1.63386 3.85031,-2.38026 1.00766,-0.74644 2.08582,-1.35808 2.3927,-1.35808 2.67469,0 13.91458,-14.802 13.91458,-18.32262 0,-0.56603 0.24879,-1.27722 0.55359,-1.57993 1.67531,-1.6753 3.51647,-13.52893 3.86275,-24.87249 0.2965,-9.65994 0.0227,-9.29918 7.24237,-9.58944 5.86772,-0.23846 8.48643,1.50528 8.50299,5.66245 0.0124,3.24694 6.64525,8.9467 12.77837,10.98071 12.8281,4.2546 26.64936,-2.18537 30.9496,-14.42049 2.42587,-6.90234 4.86212,-9.08977 11.10927,-9.97303 5.63757,-0.79826 7.17187,-0.10988 8.28737,3.71138 1.10719,3.79845 3.72174,9.64129 5.17934,11.56954 0.76094,1.00975 1.38297,2.06304 1.38297,2.34087 0,0.2799 0.84179,0.95584 1.87228,1.50322 1.0284,0.54737 2.51916,1.38502 3.31121,1.8619 4.11155,2.48186 12.67261,-1.11963 16.33008,-6.86916 1.47419,-2.31599 0.68629,-2.62491 -1.50944,-0.58884 -4.63819,4.3023 -9.23075,5.07775 -13.38584,2.25792 -3.92289,-2.66431 -4.24841,-3.57662 -5.82418,-16.37983 -0.75472,-6.11239 -8.59423,-8.10491 -16.3446,-4.15303 -1.10927,0.56604 -3.04374,1.21915 -4.30023,1.45345 -5.20631,0.97037 -5.706,1.65872 -6.39228,8.81817 -0.26747,2.8053 -0.75264,4.58221 -1.47627,5.41571 -0.59298,0.68422 -1.07817,1.48249 -1.07817,1.77689 0,2.17708 -7.11382,7.1242 -11.02632,7.6695 -1.38088,0.19285 -3.06242,0.61787 -3.74041,0.94342 -3.03338,1.46381 -13.52686,-1.30418 -16.05846,-4.23389 -5.79516,-6.70744 -4.14265,-9.78229 5.43022,-10.11196 3.43977,-0.11817 5.7454,-0.45615 6.10822,-0.89572 0.32138,-0.38772 1.61519,-1.22328 2.87581,-1.85568 3.42319,-1.72298 5.80551,-7.95978 3.56208,-9.33029 -0.41466,-0.25503 -1.09473,-1.30624 -1.51355,-2.34086 -0.50799,-1.26062 -1.25649,-1.98632 -2.26831,-2.20403 -0.83142,-0.17829 -2.03399,-0.57641 -2.67261,-0.88118 -4.28779,-2.05475 -15.3369,0.33175 -18.57557,4.01202 -2.19779,2.49844 -4.70453,6.36739 -5.07153,7.82914 -0.89778,3.57661 -13.49159,2.87582 -13.49159,-0.75057 0,-0.77961 -0.37322,-2.7348 -0.82729,-4.34792 -0.45408,-1.61103 -1.24405,-5.75366 -1.75202,-9.20381 -0.50798,-3.45012 -1.17356,-6.73855 -1.47626,-7.30665 -0.3048,-0.56603 -0.55359,-1.88885 -0.55566,-2.94007 -0.003,-1.05123 -0.3919,-2.65188 -0.86463,-3.56004 -0.47273,-0.90605 -0.86046,-2.23512 -0.86046,-2.95249 0,-0.71742 -0.37527,-1.6152 -0.83349,-1.99462 -0.45822,-0.38151 -1.28345,-1.90339 -1.83082,-3.38379 -3.11009,-8.37654 -12.56064,-21.40783 -15.52559,-21.40783 -0.44995,0 -0.81693,-0.23844 -0.81693,-0.5308 0,-0.69665 -7.79389,-4.38522 -10.37114,-4.90772 -1.10511,-0.22393 -2.87786,-0.80034 -3.9353,-1.27928 -1.0595,-0.48104 -4.09496,-1.22539 -6.74683,-1.65459 -2.65396,-0.4292 -5.29339,-1.03255 -5.8698,-1.34149 -1.38087,-0.73813 -27.12212,-1.16939 -37.006,-0.61994 m 29.19966,33.09561 c 19.79266,2.54821 31.41611,12.07341 37.23822,30.5142 1.94277,6.15386 1.81839,6.27411 -6.73646,6.52499 l -6.49181,0.19074 -1.5509,-2.23719 c -0.85424,-1.23161 -1.55092,-2.4093 -1.55092,-2.61869 0,-3.14535 -8.69374,-11.43064 -15.18555,-14.47025 -7.95978,-3.72798 -24.25668,-4.29194 -32.33049,-1.12171 -20.781674,8.16504 -27.397877,22.43624 -22.112794,47.71096 1.519812,7.27349 7.671571,18.71862 10.058054,18.71862 0.34627,0 0.9745,0.64484 1.39541,1.43065 0.42088,0.78581 1.30623,1.58823 1.96764,1.78105 0.66349,0.19284 2.30148,0.8667 3.64089,1.49491 7.67364,3.60564 30.87081,2.76178 43.35061,-1.57577 18.57556,-6.45448 28.28321,-14.78125 30.53284,-26.18701 0.34211,-1.73128 0.86875,-4.25461 1.17148,-5.6044 0.30271,-1.35186 0.54946,-4.52621 0.54946,-7.05578 0,-6.84843 4.45572,-9.55626 8.91975,-5.41985 l 1.60065,1.48455 -0.38357,6.72402 c -1.271,22.21233 -5.2768,32.76178 -15.50902,40.84387 -2.18743,1.72715 -11.5198,7.03091 -13.48744,7.66536 -1.19015,0.3815 -2.42174,0.88327 -2.73898,1.11342 -0.31723,0.23012 -1.09474,0.5681 -1.72712,0.75054 -0.63447,0.18248 -2.31806,0.7651 -3.74457,1.29591 -37.13455,13.78808 -62.620758,11.38501 -74.437044,-7.02055 -1.291725,-2.01119 -2.525398,-3.65747 -2.741037,-3.65747 -0.215627,0 -0.717393,-1.10097 -1.117565,-2.4466 -0.400161,-1.34771 -0.9973,-2.78045 -1.329048,-3.18681 -0.748496,-0.91644 -3.273895,-7.8644 -3.709304,-10.20527 -0.176233,-0.94962 -0.547374,-2.01119 -0.821068,-2.35744 -0.27368,-0.34627 -0.740194,-2.16051 -1.032549,-4.0307 -0.292354,-1.87228 -0.976567,-5.99418 -1.517726,-9.16235 -1.714704,-10.03524 -1.248188,-26.68463 0.910227,-32.5399 2.902754,-7.86853 3.763214,-9.27014 10.157576,-16.51462 4.252534,-4.81856 17.702666,-10.40015 25.531808,-10.59298 1.74167,-0.0414 3.81505,-0.28405 4.6071,-0.5391 2.56271,-0.82105 21.45759,-0.62201 28.62325,0.30065 m 196.94998,12.55236 c -1.63384,1.723 -3.40867,3.28012 -3.94566,3.46049 -1.3415,0.45202 -2.96704,3.07279 -2.56274,4.12814 0.64898,1.69397 2.16256,1.06988 11.60067,-4.7854 3.40451,-2.11073 4.82065,-4.40182 3.06447,-4.9575 -4.1924,-1.32697 -5.07566,-1.09266 -8.15674,2.15427 m -197.13038,7.96806 c 2.57518,0.36493 4.97824,1.04706 5.5505,1.5758 0.55568,0.51211 2.33879,1.83702 3.96227,2.94629 4.34998,2.96909 7.73583,7.6073 7.232,9.90255 l -0.39393,1.7852 -6.70123,-0.49141 c -15.53182,-1.13415 -26.50011,-0.28614 -29.38005,2.27452 -5.24568,4.66099 -5.83247,5.88638 -5.83247,12.14804 0,5.03836 4.92847,14.11984 7.66121,14.11984 0.33795,0 1.15074,0.47687 1.80386,1.05743 3.70931,3.30085 18.47396,5.35972 21.34562,2.97741 0.32552,-0.27161 1.88473,-0.80655 3.46466,-1.18807 9.23905,-2.23304 14.54073,-8.88657 15.1897,-19.05659 0.48932,-7.68401 0.79412,-7.97845 8.20444,-7.97845 6.61206,0 7.25274,0.48311 7.79391,5.85736 1.65249,16.41717 -11.71677,32.17914 -29.49203,34.76673 -1.57161,0.23015 -3.55171,0.76924 -4.40181,1.20258 -1.36638,0.69249 -15.34315,1.53016 -25.80966,1.54883 -3.0313,0.004 -9.33029,-2.07134 -11.80801,-3.89178 -0.9496,-0.69873 -2.12521,-1.41407 -2.61247,-1.59237 -0.48517,-0.17831 -1.6525,-1.45552 -2.59174,-2.83847 -0.93925,-1.38091 -1.90132,-2.60005 -2.13975,-2.70371 -0.23637,-0.10577 -0.43126,-0.42091 -0.43126,-0.69875 0,-0.27784 -0.8895,-2.39477 -1.975956,-4.70452 -5.938205,-12.60835 -3.6865,-30.53493 4.893216,-38.9716 8.37652,-8.23968 18.85756,-10.55152 36.46898,-8.04686 m 97.3191,4.2339 c 5.27056,2.50048 4.63817,8.9467 -1.0927,11.14035 -6.97905,2.67054 -15.44265,1.26062 -14.33961,-2.38648 1.96558,-6.49802 10.26539,-11.2067 15.43231,-8.75387 m 112.59377,2.15011 c -1.02632,0.87912 -1.64006,2.11069 -1.88056,3.76942 -3.64296,25.12337 -30.02902,28.73315 -28.43457,3.89176 0.38772,-6.04602 -0.25505,-6.87952 -3.94983,-5.12749 -2.13768,1.01387 -3.66162,3.75492 -3.66162,6.58303 0,0.89364 -0.25918,1.78311 -0.57642,1.9801 -0.31721,0.19488 -0.57639,1.16939 -0.57639,2.16462 0,1.40576 0.15344,1.65456 0.69043,1.11756 1.38504,-1.38503 2.80118,-0.75471 3.94983,1.75616 0.61579,1.34772 1.50736,2.95044 1.98217,3.56626 0.47689,0.6158 0.86462,1.54261 0.86462,2.05888 0,2.83018 6.60375,5.96102 12.67052,6.00664 5.71429,0.0414 9.88388,-1.8391 13.97056,-6.29899 4.24631,-4.63612 5.93613,-4.52831 11.21085,0.71531 2.1522,2.13768 4.68796,4.24219 5.63551,4.67551 0.94754,0.43128 2.20193,1.03257 2.78664,1.33321 1.26684,0.65312 2.80944,-0.53079 4.12399,-3.16399 1.1217,-2.24968 0.53909,-2.89448 -3.50404,-3.86276 -8.49472,-2.03816 -11.06365,-5.42815 -11.35808,-14.98651 -0.24673,-8.01578 -0.79617,-8.87624 -3.94361,-6.17872 m -191.99248,14.92639 c 1.67738,1.61516 1.51773,9.68897 -0.24052,12.06717 -0.65933,0.89156 -1.19841,1.84117 -1.19841,2.10863 0,4.7626 -17.91624,8.37653 -25.73502,5.18973 -8.21274,-3.34646 -9.70557,-14.25254 -2.46526,-18.01991 5.58988,-2.90689 27.00392,-3.8814 29.63921,-1.34562"
     id="path0"
     sodipodi:nodetypes="ccccccccccccccccccccccccsccscccsscccsccccccccccccccccccssccsccssssscscscccccsccccccccsccccccccccccscccsccccccccccscccccscccsscccccscsccccccccccccccsccccsccccccccsccccccccccsccccsccccccccccccccssscccccccccccccccsccccccccccccscccccccccccccccsccssccssccsccccsccsscccscsscscccccccscssccccccccsccscscsscsccccccscccscccccsssccccscccccccscsccccccsscccccscccsccccccccccsccccccccccccscscscsccssccccccccccscccsscccccscccccscccscccscccccccccsccccccccccssccccsccccccccsccccccccsccscssccscccccccccccsccc" />
</svg>
