<?xml version="1.0" encoding="UTF-8" standalone="no"?>
<svg
   xmlns:dc="http://purl.org/dc/elements/1.1/"
   xmlns:cc="http://creativecommons.org/ns#"
   xmlns:rdf="http://www.w3.org/1999/02/22-rdf-syntax-ns#"
   xmlns:svg="http://www.w3.org/2000/svg"
   xmlns="http://www.w3.org/2000/svg"
   xmlns:xlink="http://www.w3.org/1999/xlink"
   xmlns:sodipodi="http://sodipodi.sourceforge.net/DTD/sodipodi-0.dtd"
   xmlns:inkscape="http://www.inkscape.org/namespaces/inkscape"
   width="504px"
   height="504px"
   viewBox="-165 -165 330 330"
   id="svg3336"
   version="1.1"
   inkscape:version="0.91 r13725"
   sodipodi:docname="Sol_de_Mayo-Bandera_de_Argentina.svg">
  <metadata
     id="metadata3385">
    <rdf:RDF>
      <cc:Work
         rdf:about="">
        <dc:format>image/svg+xml</dc:format>
        <dc:type
           rdf:resource="http://purl.org/dc/dcmitype/StillImage" />
      </cc:Work>
    </rdf:RDF>
  </metadata>
  <defs
     id="defs3383" />
  <sodipodi:namedview
     pagecolor="#ffffff"
     bordercolor="#666666"
     borderopacity="1"
     objecttolerance="10"
     gridtolerance="10"
     guidetolerance="10"
     inkscape:pageopacity="0"
     inkscape:pageshadow="2"
     inkscape:window-width="1366"
     inkscape:window-height="715"
     id="namedview3381"
     showgrid="false"
     inkscape:zoom="1.0714286"
     inkscape:cx="252"
     inkscape:cy="252"
     inkscape:window-x="-8"
     inkscape:window-y="-8"
     inkscape:window-maximized="1"
     inkscape:current-layer="svg3336" />
  <title
     id="title3338">Sun of May</title>
  <title
     id="title3340">Sun of May as represented on the flag of Argentina</title>
  <g
     id="g3764">
    <g
       style="fill:none;stroke:#000000"
       id="g3550">
      <g
         style="fill:none;stroke:#000000;stroke-width:1.5"
         id="rays-4">
        <g
           style="fill:none;stroke:#000000"
           id="rays-2">
          <path
             style="fill:none;stroke:#000000"
             inkscape:connector-curvature="0"
             id="path3347"
             d="m -8,0 6,159.5 c 0,0 0,3 2,3 2,0 2,-3 2,-3 L 8,0" />
          <path
             style="fill:none;stroke:#000000"
             inkscape:connector-curvature="0"
             id="path3349"
             d="M -4,0 0,109.5 4,0" />
          <g
             style="fill:none;stroke:#000000"
             id="g3351"
             transform="matrix(0.9799247,0.19936793,-0.19936793,0.9799247,0,0)">
            <path
               style="fill:none;stroke:#000000"
               inkscape:connector-curvature="0"
               id="path3353"
               d="m -4.5,53.5 c -5,21.5 6,36 0.5,55 -5.5,19 3,32 4,40 1,8 -5,11.5 -3,13 C -1,163 5,158 5.5,147 6,136 -1.5,131.25 5,108 11.5,84.75 1,77 8,56" />
            <path
               style="fill:none;stroke:#000000"
               inkscape:connector-curvature="0"
               id="path3355"
               d="M -1,58 C -4,79 6,90.5 0,109 8,95 -2,81 3,59" />
          </g>
        </g>
        <use
           style="fill:none;stroke:#000000"
           height="100%"
           width="100%"
           y="0"
           x="0"
           id="use3357"
           transform="scale(-1,-1)"
           xlink:href="#rays-2" />
      </g>
      <use
         style="fill:none;stroke:#000000;stroke-width:1.5"
         height="100%"
         width="100%"
         y="0"
         x="0"
         id="use3359"
         transform="matrix(0,1,-1,0,0,0)"
         xlink:href="#rays-4" />
      <g
         id="use3361"
         style="fill:none;stroke:#000000;stroke-width:1.5"
         transform="matrix(0.70710678,0.70710678,-0.70710678,0.70710678,0,0)">
        <g
           style="fill:none;stroke:#000000;stroke-width:1.5"
           id="g3523">
          <g
             style="fill:none;stroke:#000000"
             id="g3525">
            <path
               style="fill:none;stroke:#000000"
               inkscape:connector-curvature="0"
               id="path3527"
               d="m -8,0 6,159.5 c 0,0 0,3 2,3 2,0 2,-3 2,-3 L 8,0" />
            <path
               style="fill:none;stroke:#000000"
               inkscape:connector-curvature="0"
               id="path3529"
               d="M -4,0 0,109.5 4,0" />
            <g
               style="fill:none;stroke:#000000"
               id="g3531"
               transform="matrix(0.9799247,0.19936793,-0.19936793,0.9799247,0,0)">
              <path
                 style="fill:none;stroke:#000000"
                 inkscape:connector-curvature="0"
                 id="path3533"
                 d="m -4.5,53.5 c -5,21.5 6,36 0.5,55 -5.5,19 3,32 4,40 1,8 -5,11.5 -3,13 C -1,163 5,158 5.5,147 6,136 -1.5,131.25 5,108 11.5,84.75 1,77 8,56" />
              <path
                 style="fill:none;stroke:#000000"
                 inkscape:connector-curvature="0"
                 id="path3535"
                 d="M -1,58 C -4,79 6,90.5 0,109 8,95 -2,81 3,59" />
            </g>
          </g>
          <use
             style="fill:none;stroke:#000000"
             height="100%"
             width="100%"
             y="0"
             x="0"
             id="use3537"
             transform="scale(-1,-1)"
             xlink:href="#rays-2" />
        </g>
        <use
           style="fill:none;stroke:#000000;stroke-width:1.5"
           height="100%"
           width="100%"
           y="0"
           x="0"
           id="use3539"
           transform="matrix(0,1,-1,0,0,0)"
           xlink:href="#rays-4" />
      </g>
      <g
         id="use3363"
         style="fill:none;stroke:#000000;stroke-width:1.5"
         transform="matrix(0.92387953,0.38268343,-0.38268343,0.92387953,0,0)">
        <g
           style="fill:none;stroke:#000000;stroke-width:1.5"
           id="g3468">
          <g
             style="fill:none;stroke:#000000"
             id="g3470">
            <g
               style="fill:none;stroke:#000000"
               id="g3472">
              <path
                 style="fill:none;stroke:#000000"
                 d="m -8,0 6,159.5 c 0,0 0,3 2,3 2,0 2,-3 2,-3 L 8,0"
                 id="path3474"
                 inkscape:connector-curvature="0" />
              <path
                 d="M -4,0 0,109.5 4,0"
                 id="path3476"
                 inkscape:connector-curvature="0"
                 style="fill:none;stroke:#000000" />
              <g
                 style="fill:none;stroke:#000000"
                 transform="matrix(0.9799247,0.19936793,-0.19936793,0.9799247,0,0)"
                 id="g3478">
                <path
                   style="fill:none;stroke:#000000"
                   d="m -4.5,53.5 c -5,21.5 6,36 0.5,55 -5.5,19 3,32 4,40 1,8 -5,11.5 -3,13 C -1,163 5,158 5.5,147 6,136 -1.5,131.25 5,108 11.5,84.75 1,77 8,56"
                   id="path3480"
                   inkscape:connector-curvature="0" />
                <path
                   d="M -1,58 C -4,79 6,90.5 0,109 8,95 -2,81 3,59"
                   id="path3482"
                   inkscape:connector-curvature="0"
                   style="fill:none;stroke:#000000" />
              </g>
            </g>
            <use
               style="fill:none;stroke:#000000"
               xlink:href="#rays-2"
               transform="scale(-1,-1)"
               id="use3484"
               x="0"
               y="0"
               width="100%"
               height="100%" />
          </g>
          <use
             style="fill:none;stroke:#000000"
             xlink:href="#rays-4"
             transform="matrix(0,1,-1,0,0,0)"
             id="use3486"
             x="0"
             y="0"
             width="100%"
             height="100%" />
        </g>
        <g
           id="use3488"
           style="fill:none;stroke:#000000;stroke-width:1.5"
           transform="matrix(0.70710678,0.70710678,-0.70710678,0.70710678,0,0)">
          <g
             style="fill:none;stroke:#000000;stroke-width:1.5"
             id="g3503">
            <g
               style="fill:none;stroke:#000000"
               id="g3505">
              <path
                 style="fill:none;stroke:#000000"
                 inkscape:connector-curvature="0"
                 id="path3507"
                 d="m -8,0 6,159.5 c 0,0 0,3 2,3 2,0 2,-3 2,-3 L 8,0" />
              <path
                 style="fill:none;stroke:#000000"
                 inkscape:connector-curvature="0"
                 id="path3509"
                 d="M -4,0 0,109.5 4,0" />
              <g
                 style="fill:none;stroke:#000000"
                 id="g3511"
                 transform="matrix(0.9799247,0.19936793,-0.19936793,0.9799247,0,0)">
                <path
                   style="fill:none;stroke:#000000"
                   inkscape:connector-curvature="0"
                   id="path3513"
                   d="m -4.5,53.5 c -5,21.5 6,36 0.5,55 -5.5,19 3,32 4,40 1,8 -5,11.5 -3,13 C -1,163 5,158 5.5,147 6,136 -1.5,131.25 5,108 11.5,84.75 1,77 8,56" />
                <path
                   style="fill:none;stroke:#000000"
                   inkscape:connector-curvature="0"
                   id="path3515"
                   d="M -1,58 C -4,79 6,90.5 0,109 8,95 -2,81 3,59" />
              </g>
            </g>
            <use
               style="fill:none;stroke:#000000"
               height="100%"
               width="100%"
               y="0"
               x="0"
               id="use3517"
               transform="scale(-1,-1)"
               xlink:href="#rays-2" />
          </g>
          <use
             style="fill:none;stroke:#000000;stroke-width:1.5"
             height="100%"
             width="100%"
             y="0"
             x="0"
             id="use3519"
             transform="matrix(0,1,-1,0,0,0)"
             xlink:href="#rays-4" />
        </g>
      </g>
    </g>
    <path
       id="circle3365"
       d="M 65,0 A 65,65 0 0 1 0,65 65,65 0 0 1 -65,0 65,65 0 0 1 0,-65 65,65 0 0 1 65,0 Z"
       style="fill:#ffffff;stroke:#000000;stroke-width:1"
       inkscape:connector-curvature="0" />
    <g
       style="fill:#000000"
       id="g3604">
      <g
         style="fill:#000000;stroke:none;stroke-width:1.5"
         id="face_right">
        <path
           style="fill:#000000"
           inkscape:connector-curvature="0"
           d="M 41,-14 C 29.5,-24 15,-25.5 7,-18 A 140,50 10 0 0 8.5,8.5 C 8,8.5 7,9 6.5,9.5 A 80,50 10 0 1 4,-19 c 11,-9 26,-10 37,5"
           id="eyebrow_nose" />
        <path
           style="fill:#000000"
           inkscape:connector-curvature="0"
           d="m 23,-17 c -6.5,0 -8,1.5 -11,4 -3,2.5 -4.5,2 -5,2.5 -0.5,0.5 0,2 1,1.5 1,-0.5 3,-1.5 6,-4 3,-2.5 6,-2.5 9,-2.5 9,0 14,7.5 15,7 C 39,-9 33,-17 23,-17"
           id="uppalpebra" />
        <path
           style="fill:#000000"
           inkscape:connector-curvature="0"
           d="M 34.5,-8.5 C 28,-15.5 16,-16 11,-8 l 2,0 c 5,-8 17,-4.5 18,-1 l 0,1"
           id="upeyecontour" />
        <path
           style="fill:#000000"
           d="M 26.5,-9 A 4.5,4.5 0 0 1 22,-4.5 4.5,4.5 0 0 1 17.5,-9 4.5,4.5 0 0 1 22,-13.5 4.5,4.5 0 0 1 26.5,-9 Z"
           id="pupil"
           inkscape:connector-curvature="0" />
        <path
           style="fill:#000000"
           inkscape:connector-curvature="0"
           d="m 11,-8 c 5,4.5 16,5 23.5,-0.5 L 31,-9 c -5,5.5 -13,5 -18,1 l 0,-1"
           id="loweyecontour" />
        <path
           style="fill:#000000"
           inkscape:connector-curvature="0"
           d="M 35,-6 C 26.5,0.5 18,0 13,-3 8,-6 8,-7 9,-7 c 1,0 2,1 6,3 4,2 10,2 20,-2"
           id="lowpalpebra" />
        <path
           style="fill:#000000"
           inkscape:connector-curvature="0"
           d="m 10.5,9 a 3,3 0 1 1 -4,3 C 6,13 4,16 0,16 l -1,0 1,1.5 c 1,0 4,0 6,-1.5 a 4.5,4.5 0 1 0 4.5,-7"
           id="nose" />
        <path
           style="fill:#000000"
           inkscape:connector-curvature="0"
           d="M 16.5,30 C 12,27 10,22.5 5,22.5 4,22.5 2,23 0,24 l -1,0 1,1.5 c 2,0 5,-2.5 8.5,-0.5 3.5,2 5.5,4 8,5"
           id="uplip1" />
        <path
           style="fill:#000000"
           inkscape:connector-curvature="0"
           d="M 15,30 C 5,27 3,29 0,29 l -1,0 1,2 c 4,0 6,-3 15,-1"
           id="midlip" />
        <path
           style="fill:#000000"
           inkscape:connector-curvature="0"
           d="M 16.5,30 C 5.5,29 9,35.5 0,35.5 l -1,0 1,1.5 c 11,0 6,-6 16.5,-7"
           id="uplip2" />
        <path
           style="fill:#000000"
           inkscape:connector-curvature="0"
           d="M 9,46 A 9,9 0 0 0 -9,46 9.25,9.25 0 0 1 9,46"
           id="chin" />
      </g>
      <use
         height="100%"
         width="100%"
         y="0"
         x="0"
         style="fill:#000000;stroke:#843511;stroke-width:1.5"
         id="use3379"
         transform="scale(-1,1)"
         xlink:href="#face_right" />
    </g>
  </g>
</svg>
